PathFileType	4	(X/Y/Z)	D:\TRACE\v60_Jaco2_6-2-23\JustArmDRS_Motion2_3-v60.trc
DataRate	CameraRate	NumFrames	NumMarkers	Units	OrigDataRate	OrigDataStartFrame	OrigNumFrames
100.00	100.00	      31	9	mm	100.00	2614	      6969
Frame#	Time	front left toe			Front right toe			aft left toe			aft right toe			Arm			FL body			FR body			AL Body			AR Body			
		X1	Y1	Z1	X2	Y2	Z2	X3	Y3	Z3	X4	Y4	Z4	X5	Y5	Z5	X6	Y6	Z6	X7	Y7	Z7	X8	Y8	Z8	X9	Y9	Z9	

2614	26.130	-234.37767	-0.56309	-178.75632	174.82190	-1.89378	-224.01784	-167.61928	51.60305	425.31168	234.89665	57.00819	412.57114	-61.48884	1099.60022	-658.55383	-143.77420	563.78979	-337.13513	15.36471	567.78802	-354.59570	-42.97290	618.61584	600.53400	113.71955	616.97455	585.69177	
2615	26.140	-233.12611	-0.30508	-178.71060	175.55899	-1.82140	-224.18709	-166.76723	51.38740	425.22711	236.08018	56.87132	412.74121	-60.20247	1099.36658	-658.70276	-143.03191	563.60596	-337.22455	16.34130	567.60162	-354.75424	-41.74277	618.85345	600.86829	114.40230	616.68414	585.82098	
2616	26.150	-232.03346	-0.41912	-178.78795	176.47826	-1.74084	-224.13666	-166.14839	51.40846	425.36102	236.74237	56.78129	412.57617	-59.11477	1099.11816	-658.87347	-142.31128	563.42523	-337.43829	17.75075	567.52368	-354.99420	-40.97281	619.25635	600.77228	115.03725	617.17200	585.50116	
2617	26.160	-231.38557	-0.29177	-178.62611	177.52745	-1.41311	-223.95340	-165.11671	51.22299	425.48602	237.63464	56.60543	412.53894	-58.17681	1098.91833	-659.20361	-141.12305	563.32953	-337.28900	18.76875	567.41193	-355.16849	-40.19053	619.41382	600.28809	115.89831	617.62927	585.53998	
2618	26.170	-230.59076	-0.05987	-178.57840	178.42426	-1.25034	-223.90991	-164.26173	50.98668	425.32642	238.85156	56.44159	412.83743	-57.20732	1098.62500	-659.54333	-139.94186	563.13196	-336.99030	19.00857	567.09497	-354.80621	-39.44635	619.72961	600.73059	116.86452	617.76862	585.73499	
2619	26.180	-229.59654	0.09898	-178.53581	179.21686	-0.96015	-223.74998	-163.46808	50.85154	425.43237	239.39493	56.00621	412.94119	-56.24864	1098.09814	-659.91516	-138.89461	562.79242	-336.86496	19.99594	566.84851	-354.59531	-38.43338	619.94153	600.78491	117.66584	618.10065	585.61169	
2620	26.190	-228.64330	0.30149	-178.31139	180.11674	-0.88501	-223.51012	-162.48047	50.52821	425.59430	239.85728	55.78375	412.96652	-55.27010	1097.36768	-659.91974	-137.81378	562.50806	-336.95050	20.66194	566.56946	-354.67072	-37.67192	620.20081	600.83380	118.41168	618.23230	585.64325	
2621	26.200	-228.00081	0.53381	-178.28749	181.16650	-0.65351	-223.53351	-161.59982	50.15446	425.63498	241.22597	55.68125	413.20609	-54.37537	1096.80359	-660.26855	-137.37357	562.51233	-337.12534	22.29107	566.32300	-354.93292	-36.87065	620.41364	600.89594	119.47456	618.47357	585.61816	
2622	26.210	-226.88620	0.56661	-178.10655	182.19830	-0.61522	-223.40599	-160.53563	49.76224	425.66513	242.11359	55.28418	413.13364	-53.23724	1096.29187	-660.64447	-136.51564	562.12903	-337.19666	22.74990	565.80701	-354.38663	-36.27736	620.66296	600.38483	120.07204	618.71570	585.52881	
2623	26.220	-225.97835	0.74495	-178.11244	183.27715	-0.44964	-223.23720	-159.68044	49.50533	425.87973	242.90851	55.10287	413.12354	-52.29837	1095.89172	-660.71320	-135.55652	561.88721	-337.20963	23.57157	565.46796	-354.49338	-35.55041	620.76941	600.37366	111.60664	613.41541	581.57251	
2624	26.230	-224.88503	1.09126	-177.83249	183.94754	-0.30822	-223.13069	-158.76083	49.09722	426.05902	244.19263	54.67691	413.41071	-51.38253	1095.28381	-661.07587	-134.30347	561.34570	-336.84583	25.17086	565.21991	-354.50452	-33.68838	620.91998	600.38416	121.91175	618.72040	586.01379	
2625	26.240	-223.91733	1.17987	-177.76897	183.43454	-0.28450	-223.19075	-157.68922	48.60450	426.23688	244.93515	54.20855	413.43057	-49.90076	1094.67517	-661.25037	-133.62341	560.93835	-336.84314	25.40585	564.48029	-353.84711	-33.00853	621.20447	600.84814	152.73837	635.98901	599.43103	
2626	26.250	-223.04033	1.12753	-177.66873	184.26007	-0.13690	-223.18549	-156.74454	48.34932	426.32581	246.19958	53.92710	413.74603	-49.00055	1094.12354	-661.49365	-132.34233	560.29572	-336.50854	27.11682	564.05792	-354.36142	-31.71635	621.27167	601.04352	124.28572	619.35223	586.05432	
2627	26.260	-221.97464	1.47142	-177.42123	185.50418	0.15518	-223.05359	-156.03716	48.16677	426.36789	246.96992	53.39246	413.77307	-47.90427	1093.33643	-661.96826	-131.01108	559.73523	-336.20319	27.66754	563.52124	-353.83621	-30.86208	621.54224	601.16174	125.35815	619.51178	585.94733	
2628	26.270	-220.85504	1.80987	-177.33289	186.57683	0.44123	-222.84332	-154.88196	47.62107	426.42984	247.68422	53.17815	413.69315	-46.70792	1092.32129	-662.31885	-130.21198	559.41925	-336.07980	28.46558	562.87250	-353.49152	-29.52185	621.35577	600.77570	126.42548	619.45856	586.06653	
2629	26.280	-220.10013	1.92075	-177.06032	187.22188	0.49322	-222.66196	-153.82063	47.13222	426.60556	249.37120	52.92373	414.10477	-45.85309	1091.44019	-662.62042	-129.91278	559.18939	-336.33249	29.56635	562.29932	-353.56985	-28.71581	621.58948	601.27423	127.21848	619.28033	586.31525	
2630	26.290	-219.01547	2.06149	-176.90848	188.67114	0.79854	-222.36043	-152.75269	46.66322	427.07410	249.84708	52.37790	414.05191	-44.52984	1090.34070	-662.68604	-128.63397	558.45953	-336.32056	30.93051	561.92181	-354.04703	-27.76115	621.67810	601.30652	128.55751	619.36157	586.42572	
2631	26.300	-217.75923	2.28855	-176.85837	189.32611	1.04355	-222.37723	-151.56224	46.23597	427.09061	251.09711	51.89962	414.40488	-43.42955	1089.70251	-663.08435	-127.00266	557.92987	-336.01733	32.42304	561.31854	-353.97049	-26.52328	621.79303	601.42993	129.63452	619.49786	586.38361	
2632	26.310	-217.05841	2.62129	-176.48041	190.55574	1.47895	-221.99722	-150.76289	45.97580	427.17020	251.87720	51.32365	414.55505	-42.31165	1089.19775	-663.32666	-126.54047	557.52673	-336.06149	32.76465	560.64203	-353.48941	-25.61223	621.89026	601.58667	131.05946	619.60876	586.50818	
2633	26.320	-215.86375	2.87764	-176.23167	191.56215	1.66065	-221.87688	-149.68900	45.49922	427.47003	252.76918	50.84035	414.63684	-40.88375	1088.66919	-663.24432	-125.48907	557.01385	-335.83917	35.32113	560.43445	-353.57953	-24.11114	621.89874	601.74347	131.87592	619.46112	586.50623	
2634	26.330	-214.64090	2.95623	-176.18384	192.55212	2.04459	-221.62498	-148.44478	44.76668	427.73456	254.34895	50.56664	414.77936	-39.29593	1088.16345	-663.30011	-124.12215	556.59363	-335.66360	34.77884	559.48328	-352.61923	-23.51471	621.91479	601.35992	132.78506	619.16748	586.70502	
2635	26.340	-213.65668	3.21789	-175.87949	193.80569	2.44172	-221.35446	-147.43564	44.18295	427.96378	255.11484	49.94412	414.94955	-38.05351	1087.38330	-663.25006	-123.24566	556.34399	-335.42490	36.78265	559.24615	-352.94357	-21.77691	621.69415	601.99579	133.78508	618.92426	586.81494	
2636	26.350	-212.46866	3.47891	-175.48834	194.76816	2.82882	-221.13014	-146.41563	43.70087	428.05759	256.45651	49.30817	415.14761	-35.90311	1086.82080	-663.25836	-121.59657	555.96844	-335.07053	38.66870	559.01953	-353.06894	-20.89523	621.66730	602.19073	135.20438	618.68927	587.29492	
2637	26.360	-211.21812	3.60858	-175.36182	196.22246	3.23912	-220.84158	-145.42409	43.28852	428.22235	257.13544	48.52752	415.37704	-34.76091	1086.47327	-663.19226	-120.79897	555.88129	-334.92838	38.43368	558.51453	-352.37701	-19.30665	621.55859	601.94342	136.61415	618.54077	587.46985	
2638	26.370	-211.15120	4.58465	-175.21559	196.87706	3.48859	-220.63312	-144.22002	42.53127	428.55887	258.14990	47.96572	415.60214	-33.07596	1086.09302	-662.84216	-119.49171	555.69769	-334.83469	39.43135	558.09882	-352.19760	-18.46361	621.22668	602.10425	137.72879	618.30371	587.40887	
2639	26.380	-209.84312	4.88360	-174.70584	198.06288	3.90713	-220.25357	-143.25363	41.93655	428.82025	259.49060	47.54186	415.96924	-31.50224	1086.10388	-662.72620	-117.99201	555.53082	-334.45493	41.04002	557.78204	-351.78876	-16.94183	621.28290	602.77979	138.94228	618.28839	587.89679	
2640	26.390	-208.62560	5.33790	-174.69685	199.32184	4.18915	-220.16928	-142.01631	41.38872	428.97110	260.32205	46.81483	416.12781	-30.05203	1085.96350	-662.40576	-116.91137	555.42413	-334.15335	42.97534	557.86078	-352.02203	-16.00312	621.03027	603.10016	140.37204	617.89618	588.13605	
2641	26.400	-207.86566	5.52089	-174.55759	200.42715	4.51766	-219.91479	-140.66805	40.76365	429.22836	262.14658	46.20919	416.57452	-28.90394	1086.03882	-662.14862	-115.69323	555.14337	-334.22217	43.57928	557.81207	-351.36414	-14.56471	620.48572	603.42950	141.56117	617.59406	588.22943	
2642	26.410	-206.44038	6.20869	-174.22984	201.64500	5.09145	-219.66853	-139.80099	40.02753	429.52640	262.87006	45.58205	416.63992	-26.88269	1086.11401	-661.53650	-114.35709	555.46649	-333.75027	44.99958	557.83191	-351.17499	-13.68876	620.27893	603.51758	142.75122	617.33112	588.50055	
2643	26.420	-205.28419	6.08560	-174.21632	202.76035	5.38886	-219.62712	-138.51718	39.29723	429.65662	264.09897	44.87228	417.01282	-25.51583	1086.18738	-661.15027	-113.04144	555.47052	-333.52344	46.15072	557.78772	-351.05557	-12.16428	620.29132	603.86108	143.82091	616.46387	588.82825	
2644	26.430	-204.38829	6.80962	-173.77896	203.87317	5.83629	-219.33858	-137.61432	38.81353	429.84567	264.93661	44.08948	417.36057	-23.62747	1086.34204	-660.65320	-112.00693	555.67029	-333.35541	48.33553	557.85791	-351.11426	-11.43893	619.67322	603.83130	145.47108	616.68359	589.32666	
